Coordinates
version=1
nRows=12
nColumns=24
inDegrees=yes

Units are S.I. units (second, meters, Newtons, ...)
Angles are in degrees.

endheader
time	pelvis_tilt	pelvis_list	pelvis_rotation	pelvis_tx	pelvis_ty	pelvis_tz	hip_flexion_r	hip_adduction_r	hip_rotation_r	knee_angle_r	ankle_angle_r	subtalar_angle_r	mtp_angle_r	hip_flexion_l	hip_adduction_l	hip_rotation_l	knee_angle_l	ankle_angle_l	subtalar_angle_l	mtp_angle_l	lumbar_extension	lumbar_bending	lumbar_rotation
      4.43500000	    -17.74853663	     -5.29999795	      6.59068486	     -1.22760752	     -0.04408259	     -0.32896511	     45.54798716	      1.87550300	    -20.35153865	    -13.75332236	     -0.26702031	     -2.39805815	     19.82087742	     -1.70485582	     -4.03384812	     -3.97648278	    -15.43035894	      7.23471094	     14.03605636	     11.34425278	     21.14018951	     -0.66258872	    -24.39153502
      4.44000000	    -17.71395429	     -5.52148050	      6.59182266	     -1.21956292	     -0.04494082	     -0.32870749	     45.58591706	      2.12520545	    -20.09333742	    -14.55196672	     -0.91305779	     -3.39572149	     19.66452744	     -1.84438279	     -4.47078796	     -4.10583992	    -16.11422609	      6.58512386	     14.54126407	     11.83528733	     21.26179539	     -0.42720032	    -24.49081523
      4.44500000	    -17.70221200	     -5.76281922	      6.58216241	     -1.21146521	     -0.04576726	     -0.32843898	     45.64987821	      2.40298679	    -19.79157717	    -15.35795291	     -1.66874161	     -4.51906795	     19.54406027	     -1.92542046	     -4.93660251	     -4.25599304	    -16.84588783	      5.84382423	     15.08301279	     12.36183646	     21.41636014	     -0.16675586	    -24.60887992
      4.45000000	    -17.69340761	     -6.00898368	      6.55500786	     -1.20338946	     -0.04654495	     -0.32809870	     45.72743374	      2.71092271	    -19.37820054	    -16.17503062	     -2.53118027	     -5.77929513	     19.40225261	     -1.95577334	     -5.42738371	     -4.46394583	    -17.63680414	      5.00224406	     15.69398287	     13.09808674	     21.56471621	      0.09817627	    -24.66556599
      4.45500000	    -17.72996471	     -6.31464517	      6.52107556	     -1.19519841	     -0.04731699	     -0.32778863	     45.86295547	      3.07001374	    -18.95072635	    -17.01537326	     -3.43671083	     -7.15468745	     19.20056047	     -1.90652584	     -5.98112244	     -4.67404223	    -18.46628641	      4.06682740	     16.27218229	     13.78966305	     21.78811611	      0.42100056	    -24.81651815
      4.46000000	    -17.76159754	     -6.61353597	      6.44868302	     -1.18713192	     -0.04805369	     -0.32739636	     46.02965754	      3.45995561	    -18.41658114	    -17.90568000	     -4.40650418	     -8.63096073	     18.85539523	     -1.79923414	     -6.54538046	     -4.92822135	    -19.38375675	      3.05643350	     16.89533069	     14.72826790	     21.97475748	      0.75125911	    -24.87960318
      4.46500000	    -17.77677274	     -6.86564815	      6.36061072	     -1.17904001	     -0.04872167	     -0.32688619	     46.20267274	      3.84278592	    -17.75757132	    -18.87562354	     -5.25231961	    -10.09595935	     18.14008910	     -1.70034643	     -7.08838798	     -5.23889682	    -20.26013278	      1.78195358	     17.55336623	     16.31069170	     22.13798606	      1.03225416	    -24.92063935
      4.47000000	    -17.84349037	     -7.22780629	      6.29109036	     -1.17097627	     -0.04939330	     -0.32651730	     46.43857346	      4.28851713	    -17.16262747	    -19.84346775	     -6.12491600	    -11.58284402	     17.38988052	     -1.43651941	     -7.73259653	     -5.47028791	    -21.31432688	      0.51885783	     18.06960054	     17.46557915	     22.36478615	      1.42310698	    -25.04448886
      4.47500000	    -17.82771577	     -7.52305672	      6.26747464	     -1.16291475	     -0.04991723	     -0.32611902	     46.60794092	      4.67394194	    -16.52580677	    -20.93259184	     -6.68814855	    -12.84039271	     15.68895934	     -1.25767603	     -8.32252307	     -5.60722728	    -22.24267796	     -1.13155786	     18.40070976	     19.86815376	     22.49267576	      1.72803836	    -25.20490215
      4.48000000	    -17.89714888	     -7.85060908	      6.16328371	     -1.15493506	     -0.05055000	     -0.32564657	     46.87384929	      5.13312680	    -15.87149053	    -21.98089448	     -7.29230626	    -14.23148928	     14.80276067	     -0.87349308	     -8.95794857	     -5.87614427	    -23.46269151	     -2.64023001	     18.97391573	     20.90141346	     22.69578274	      2.09107794	    -25.27464531
      4.48500000	    -17.90729646	     -8.10665590	      6.07655676	     -1.14692107	     -0.05107832	     -0.32509008	     47.08186991	      5.54638465	    -15.23006857	    -23.12764884	     -7.55068775	    -15.33613452	     12.99640019	     -0.56465081	     -9.53376634	     -6.06518003	    -24.53423228	     -4.53444170	     19.39292674	     23.22480283	     22.82900563	      2.36962955	    -25.33157906
      4.49000000	    -17.86163122	     -8.40211782	      6.09364789	     -1.13904707	     -0.05148700	     -0.32477848	     47.20315527	      5.92046099	    -14.68421926	    -24.23596138	     -7.61239253	    -16.23211834	     11.14132134	     -0.19601187	    -10.11689333	     -6.01070626	    -25.71832736	     -6.52235031	     19.46737744	     25.37367553	     22.89172092	      2.67003732	    -25.56172858
